<?xml version="1.0" encoding="UTF-8"?>
<svg width="780px" height="780px" viewBox="0 0 780 780" version="1.1" xmlns="http://www.w3.org/2000/svg" xmlns:xlink="http://www.w3.org/1999/xlink">
    <!-- Generator: Sketch 46.2 (44496) - http://www.bohemiancoding.com/sketch -->
    <title>icon/logo</title>
    <desc>Created with Sketch.</desc>
    <defs>
        <linearGradient x1="7.52391087%" y1="94.8819582%" x2="93.8335862%" y2="10.6467656%" id="linearGradient-1">
            <stop stop-color="#3080EF" offset="0%"></stop>
            <stop stop-color="#135BBF" offset="100%"></stop>
        </linearGradient>
        <path d="M594.140625,1.32785851e-14 C706.875,1.32785851e-14 780,73.0318361 780,185.622583 L780,593.383669 C780,705.974416 706.875,779.006252 594.140625,779.006252 L185.859375,779.006252 C73.125,779.006252 0,705.974416 0,593.383669 L0,185.622583 C0,73.0318361 73.125,1.32785852e-14 185.859375,1.32785852e-14 L594.140625,1.32785851e-14 Z" id="path-2"></path>
    </defs>
    <g id="Page-1" stroke="none" stroke-width="1" fill="none" fill-rule="evenodd">
        <g id="icon/logo">
            <g id="icon">
                <mask id="mask-3" fill="white">
                    <use xlink:href="#path-2"></use>
                </mask>
                <use id="Mask" fill="url(#linearGradient-1)" xlink:href="#path-2"></use>
                <g id="bg" opacity="0.150000006" mask="url(#mask-3)" stroke-linecap="round" stroke-linejoin="round">
                    <g transform="translate(-38.000000, -47.938540)" id="droplet">
                        <g opacity="0.8" transform="translate(643.000000, 778.002561)">
                            <path d="M51.4437217,0 L104.683576,52.6959972 C122.232024,70.2757215 127.486484,96.7221337 117.996199,119.700241 C108.505915,142.678348 86.1404134,157.661607 61.3312906,157.661607 C36.5221677,157.661607 14.1566659,142.678348 4.66638167,119.700241 C-4.82390256,96.7221337 0.430557472,70.2757215 17.9790049,52.6959972 C30.7320895,40.7033669 39.6435615,30.7153656 44.713421,22.7319931 C47.0801653,19.005144 49.3235988,11.4278129 51.4437217,0 Z" id="Shape" stroke="#FFFFFF" stroke-width="16.2000006"></path>
                        </g>
                        <g opacity="0.78" transform="translate(767.000000, 554.289373) rotate(12.000000) translate(-767.000000, -554.289373) translate(685.000000, 449.423816)">
                            <path d="M68.5916289,0 L139.578102,70.0389836 C162.976032,93.4044399 169.981978,128.554735 157.328266,159.095257 C144.674554,189.63578 114.853885,209.550238 81.7750541,209.550238 C48.6962236,209.550238 18.8755545,189.63578 6.22184222,159.095257 C-6.43187007,128.554735 0.574076629,93.4044399 23.9720065,70.0389836 C40.9761193,54.0994117 52.858082,40.8242201 59.6178946,30.2134085 C62.7735537,25.2600015 65.7647985,15.1888653 68.5916289,0 Z" id="Shape" stroke="#FFFFFF" stroke-width="16.2000006"></path>
                        </g>
                        <g opacity="0.89" transform="translate(347.000000, 717.080666)">
                            <path d="M71.5193204,0 L145.535704,73.0406543 C169.932326,97.4074874 177.237307,134.064223 164.043497,165.913625 C150.849687,197.763027 119.756185,218.530962 85.2654527,218.530962 C50.7747209,218.530962 19.6812184,197.763027 6.48740866,165.913625 C-6.70640111,134.064223 0.5985799,97.4074874 24.9952019,73.0406543 C42.7251,56.417958 55.1142197,42.5738295 62.1625609,31.5082689 C65.4529127,26.342573 68.5718325,15.8398167 71.5193204,0 Z" id="Shape" stroke="#FFFFFF" stroke-width="16.2000006"></path>
                        </g>
                        <g opacity="0.83" transform="translate(633.000000, 0.000000)">
                            <path d="M68.5916289,0 L139.578102,69.7054646 C162.976032,92.9596569 169.981978,127.942569 157.328266,158.337661 C144.674554,188.732752 114.853885,208.55238 81.7750541,208.55238 C48.6962236,208.55238 18.8755545,188.732752 6.22184222,158.337661 C-6.43187007,127.942569 0.574076629,92.9596569 23.9720065,69.7054646 C40.9761193,53.8417955 52.858082,40.629819 59.6178946,30.0695352 C62.7735537,25.1397158 65.7647985,15.1165374 68.5916289,0 Z" id="Shape" stroke="#FFFFFF" stroke-width="16.2000006"></path>
                        </g>
                        <g opacity="0.89" transform="translate(323.000000, 23.969270)">
                            <path d="M45.1700971,0 L91.9172864,46.0256178 C107.325679,61.3800605 111.939352,84.4788256 103.606419,104.548312 C95.2734865,124.617798 75.6354849,137.704442 53.8518649,137.704442 C32.0682448,137.704442 12.4302432,124.617798 4.09731073,104.548312 C-4.23562176,84.4788256 0.378050463,61.3800605 15.7864433,46.0256178 C26.9842737,35.551042 34.8089809,26.8273446 39.2605648,19.8545256 C41.3386817,16.5994295 43.3085258,9.98125434 45.1700971,0 Z" id="Shape" stroke="#FFFFFF" stroke-width="16.2000006"></path>
                        </g>
                        <g opacity="0.73" transform="translate(40.000000, 594.238156)">
                            <path d="M63.5727293,0 L129.36507,65.0361991 C151.050956,86.7326942 157.544272,119.372254 145.816442,147.73131 C134.088611,176.090367 106.449942,194.582364 75.7915135,194.582364 C45.1330853,194.582364 17.4944164,176.090367 5.76658547,147.73131 C-5.96124543,119.372254 0.532071022,86.7326942 22.2179573,65.0361991 C37.9778667,50.235168 48.9904175,37.9082043 55.2556097,28.0553079 C58.1803668,23.4557157 60.95274,14.1039464 63.5727293,0 Z" id="Shape" stroke="#FFFFFF" stroke-width="16.2000006"></path>
                        </g>
                        <g opacity="0.89" transform="translate(115.701346, 252.423030) rotate(-20.000000) translate(-115.701346, -252.423030) translate(31.701346, 145.060674)">
                            <path d="M70.2645955,0 L142.982446,71.7065784 C166.951057,95.6283552 174.12788,131.615562 161.165541,162.883239 C148.203201,194.150917 117.655199,214.539529 83.7695676,214.539529 C49.8839364,214.539529 19.3359339,194.150917 6.37359447,162.883239 C-6.58874495,131.615562 0.588078498,95.6283552 24.5566896,71.7065784 C41.9755369,55.387493 54.1473036,41.7962253 61.0719896,30.9327754 C64.304616,25.8614301 67.3688179,15.550505 70.2645955,0 Z" id="Shape" stroke="#FFFFFF" stroke-width="16.2000006"></path>
                        </g>
                    </g>
                </g>
                <g id="droplet" mask="url(#mask-3)" stroke-linecap="round" stroke="#FFFFFF" stroke-width="36" stroke-linejoin="round">
                    <g transform="translate(246.000000, 204.737516)" id="Shape">
                        <path d="M120.871834,0 L245.96385,123.402019 C287.195568,164.569727 299.541413,226.501199 277.243103,280.310691 C254.944793,334.120183 202.394955,369.207562 144.103601,369.207562 C85.8122477,369.207562 33.2624101,334.120183 10.9641,280.310691 C-11.3342101,226.501199 1.01163504,164.569727 42.2433529,123.402019 C72.2079176,95.3180112 93.1462543,71.9283877 105.058363,53.2331484 C110.61925,44.5057169 115.890407,26.7613341 120.871834,0 Z"></path>
                    </g>
                </g>
            </g>
        </g>
    </g>
</svg>